HIERARCHY
ROOT Root
{
	OFFSET 0.00000 0.00000 0.00000
	CHANNELS 6 Xposition Yposition Zposition Zrotation Xrotation Yrotation
	JOINT Hip
	{
		OFFSET 0 0 0	
		CHANNELS 3 Zrotation Xrotation Yrotation
		JOINT Tummy
		{
			OFFSET 0 0.04 0	
			CHANNELS 3 Zrotation Xrotation Yrotation
			JOINT ChestBottom
			{
				OFFSET 0 0.194 0	
				CHANNELS 3 Zrotation Xrotation Yrotation
				JOINT ChestTop
				{
					OFFSET 0 0.166 0	
					CHANNELS 3 Zrotation Xrotation Yrotation
					JOINT LeftCollar
					{
						OFFSET 0 0.1 0	
						CHANNELS 3 Zrotation Xrotation Yrotation
						JOINT LeftUpperArm
						{
							OFFSET 0.156 -0.02 0.03	
							CHANNELS 3 Zrotation Xrotation Yrotation
							JOINT LeftForeArm
							{
								OFFSET 0.035 -0.27 -0.01	
								CHANNELS 3 Zrotation Xrotation Yrotation
								JOINT LeftHand
								{
									OFFSET 0.01 -0.27 0.01	
									CHANNELS 3 Zrotation Xrotation Yrotation
									End Site
									{
										OFFSET 0 -0.15 0
									}
								}
							}
						}
					}
					JOINT RightCollar
					{
						OFFSET 0 0.1 0	
						CHANNELS 3 Zrotation Xrotation Yrotation
						JOINT RightUpperArm
						{
							OFFSET -0.156 -0.02 0.03	
							CHANNELS 3 Zrotation Xrotation Yrotation
							JOINT RightForeArm
							{
								OFFSET -0.035 -0.27 -0.01	
								CHANNELS 3 Zrotation Xrotation Yrotation
								JOINT RightHand
								{
									OFFSET -0.01 -0.27 0.01	
									CHANNELS 3 Zrotation Xrotation Yrotation
									End Site
									{
										OFFSET 0 -0.15 0
									}
								}
							}
						}
					}
					JOINT Neck
					{
						OFFSET 0 0.1 0	
						CHANNELS 3 Zrotation Xrotation Yrotation
						JOINT Head
						{
							OFFSET 0 0.127 0.03	
							CHANNELS 3 Zrotation Xrotation Yrotation
							End Site
							{
								OFFSET 0 0.127 0.03
							}
						}
					}
				}
			}
		}
	}
	JOINT LeftHip
	{
		OFFSET 0 0 0	
		CHANNELS 3 Zrotation Xrotation Yrotation
		JOINT LeftThigh
		{
			OFFSET 0.088 -0.06 0	
			CHANNELS 3 Zrotation Xrotation Yrotation
			JOINT LeftLowerLeg
			{
				OFFSET 0 -0.39 0.02	
				CHANNELS 3 Zrotation Xrotation Yrotation
				JOINT LeftFootTop
				{
					OFFSET 0 -0.43 -0.02	
					CHANNELS 3 Zrotation Xrotation Yrotation
					JOINT LeftFootFront
					{
						OFFSET 0 -0.07 0.085	
						CHANNELS 3 Zrotation Xrotation Yrotation
						End Site
						{
							OFFSET 0 -0.005 0.09
						}
					}
				}
				JOINT LeftHeel
				{
					OFFSET 0 -0.43 -0.02	
					CHANNELS 3 Zrotation Xrotation Yrotation
					End Site
					{
						OFFSET 0 -0.075 -0.05
					}
				}
			}
		}
	}
	JOINT RightHip
	{
		OFFSET 0 0 0	
		CHANNELS 3 Zrotation Xrotation Yrotation
		JOINT RightThigh
		{
			OFFSET -0.088 -0.06 0	
			CHANNELS 3 Zrotation Xrotation Yrotation
			JOINT RightLowerLeg
			{
				OFFSET 0 -0.39 0.02	
				CHANNELS 3 Zrotation Xrotation Yrotation
				JOINT RightFootTop
				{
					OFFSET 0 -0.43 -0.02	
					CHANNELS 3 Zrotation Xrotation Yrotation
					JOINT RightFootFront
					{
						OFFSET 0 -0.07 0.085	
						CHANNELS 3 Zrotation Xrotation Yrotation
						End Site
						{
							OFFSET 0 -0.005 0.09
						}
					}
				}
				JOINT RightHeel
				{
					OFFSET 0 -0.43 -0.02	
					CHANNELS 3 Zrotation Xrotation Yrotation
					End Site
					{
						OFFSET 0 -0.075 -0.05
					}
				}
			}
		}
	}
}
MOTION
Frames: 24
Frame Time: 0.0015083
0 0.98401 0 -0 0 -0 14.028 20.499 -28.727 -3.9452 -3.175 0.010253 -3.9452 -3.175 0.010252 -3.3134 -2.6671 0.023322 -0 0 -0 31.84 26.048 72.065 -85.668 56.645 28.106 -0 0 -0 -0 0 -0 -7.3668 -58.408 -3.0045 108.8 3.3281 -1.8036 -0 0 -0 7.5815 2.5142 -0.47602 7.5815 2.5142 -0.47601 14.028 20.499 -28.727 -18.022 -46.323 -7.9552 -0 0 -0 -0 0 -0 -0 0 -0 -0 0 -0 14.028 20.499 -28.727 6.5762 -44.556 -4.8798 -20.504 35.692 -3.8291 -0 0 -0 -0 0 -0 -0 0 -0 
0 0.98401 0 -0 0 -0 14.071 20.429 -28.94 -3.9103 -3.176 0.094613 -3.9103 -3.176 0.094613 -3.2844 -2.6675 0.094048 -0 0 -0 31.675 26.488 72.259 -85.015 56.353 27.507 -0 0 -0 -0 0 -0 -6.9892 -58.757 -1.9552 108.91 2.8665 -1.2447 -0 0 -0 7.5774 2.5225 -0.55351 7.5774 2.5225 -0.55351 14.071 20.429 -28.94 -17.844 -46.366 -7.9422 -0 0 -0 -0 0 -0 -0 0 -0 -0 0 -0 14.071 20.429 -28.94 6.5288 -44.445 -5.1806 -20.619 35.45 -3.2609 -0 0 -0 -0 0 -0 -0 0 -0 
0 0.98401 0 -0 0 -0 14.117 20.361 -29.151 -3.8796 -3.179 0.17928 -3.8796 -3.179 0.17929 -3.2589 -2.6697 0.16506 -0 0 -0 31.529 26.919 72.443 -84.411 56.052 26.956 -0 0 -0 -0 0 -0 -6.6025 -59.095 -0.91093 109.03 2.4018 -0.68246 -0 0 -0 7.5772 2.5322 -0.63269 7.5772 2.5322 -0.63269 14.117 20.361 -29.151 -17.664 -46.412 -7.9161 -0 0 -0 -0 0 -0 -0 0 -0 -0 0 -0 14.117 20.361 -29.151 6.4755 -44.343 -5.4915 -20.736 35.218 -2.6908 -0 0 -0 -0 0 -0 -0 0 -0 
0 0.98401 0 -0 0 -0 14.166 20.297 -29.36 -3.8529 -3.1841 0.26396 -3.8529 -3.1841 0.26396 -3.2369 -2.6736 0.2361 -0 0 -0 31.404 27.342 72.618 -83.857 55.743 26.452 -0 0 -0 -0 0 -0 -6.2063 -59.421 0.1292 109.14 1.9341 -0.1173 -0 0 -0 7.5808 2.5431 -0.71312 7.5808 2.5431 -0.71312 14.166 20.297 -29.36 -17.484 -46.462 -7.8769 -0 0 -0 -0 0 -0 -0 0 -0 -0 0 -0 14.166 20.297 -29.36 6.4165 -44.249 -5.8119 -20.856 34.994 -2.1195 -0 0 -0 -0 0 -0 -0 0 -0 
0 0.98401 0 -0 0 -0 14.218 20.236 -29.565 -3.8303 -3.1911 0.34832 -3.8303 -3.1911 0.34833 -3.2181 -2.6791 0.3069 -0 0 -0 31.299 27.757 72.783 -83.353 55.427 25.996 -0 0 -0 -0 0 -0 -5.8 -59.737 1.1662 109.25 1.4635 0.45056 -0 0 -0 7.5881 2.555 -0.79429 7.5881 2.555 -0.79428 14.218 20.236 -29.565 -17.303 -46.516 -7.8246 -0 0 -0 -0 0 -0 -0 0 -0 -0 0 -0 14.218 20.236 -29.565 6.3518 -44.163 -6.1414 -20.978 34.778 -1.5476 -0 0 -0 -0 0 -0 -0 0 -0 
0 0.98401 0 -0 0 -0 14.273 20.179 -29.768 -3.8114 -3.1999 0.43201 -3.8114 -3.1999 0.43201 -3.2026 -2.6861 0.37716 -0 0 -0 31.213 28.162 72.94 -82.898 55.105 25.587 -0 0 -0 -0 0 -0 -5.383 -60.043 2.2013 109.37 0.99028 1.0208 -0 0 -0 7.5986 2.5679 -0.8757 7.5986 2.5679 -0.8757 14.273 20.179 -29.768 -17.122 -46.574 -7.7594 -0 0 -0 -0 0 -0 -0 0 -0 -0 0 -0 14.273 20.179 -29.768 6.2816 -44.085 -6.4799 -21.104 34.57 -0.97589 -0 0 -0 -0 0 -0 -0 0 -0 
0 0.98401 0 -0 0 -0 14.332 20.125 -29.967 -3.7962 -3.2102 0.51467 -3.7962 -3.2102 0.51467 -3.1902 -2.6944 0.44657 -0 0 -0 31.146 28.559 73.089 -82.493 54.776 25.225 -0 0 -0 -0 0 -0 -4.9544 -60.341 3.2359 109.48 0.51459 1.593 -0 0 -0 7.6124 2.5817 -0.9568 7.6124 2.5817 -0.9568 14.332 20.125 -29.967 -16.941 -46.636 -7.6814 -0 0 -0 -0 0 -0 -0 0 -0 -0 0 -0 14.332 20.125 -29.967 6.206 -44.014 -6.8267 -21.231 34.37 -0.40498 -0 0 -0 -0 0 -0 -0 0 -0 
0 0.98401 0 -0 0 -0 14.394 20.074 -30.164 -3.7846 -3.2221 0.59591 -3.7846 -3.2221 0.59591 -3.1807 -2.704 0.51481 -0 0 -0 31.098 28.947 73.231 -82.136 54.443 24.909 -0 0 -0 -0 0 -0 -4.5135 -60.632 4.2714 109.6 0.036697 2.1667 -0 0 -0 7.629 2.5962 -1.037 7.629 2.5962 -1.0371 14.394 20.074 -30.164 -16.76 -46.702 -7.5908 -0 0 -0 -0 0 -0 -0 0 -0 -0 0 -0 14.394 20.074 -30.164 6.1252 -43.951 -7.1815 -21.362 34.177 0.1645 -0 0 -0 -0 0 -0 -0 0 -0 
0 0.98401 0 -0 0 -0 14.46 20.027 -30.357 -3.7762 -3.2353 0.67536 -3.7762 -3.2353 0.67536 -3.174 -2.7147 0.58157 -0 0 -0 31.068 29.326 73.366 -81.828 54.105 24.639 -0 0 -0 -0 0 -0 -4.0591 -60.915 5.3094 109.71 -0.44318 2.7417 -0 0 -0 7.6482 2.6112 -1.1159 7.6482 2.6112 -1.1159 14.46 20.027 -30.357 -16.581 -46.773 -7.488 -0 0 -0 -0 0 -0 -0 0 -0 -0 0 -0 14.46 20.027 -30.357 6.0393 -43.896 -7.5438 -21.494 33.992 0.73176 -0 0 -0 -0 0 -0 -0 0 -0 
0 0.98401 0 -0 0 -0 14.529 19.982 -30.547 -3.771 -3.2496 0.75264 -3.771 -3.2496 0.75264 -3.1699 -2.7264 0.64652 -0 0 -0 31.055 29.695 73.495 -81.568 53.764 24.416 -0 0 -0 -0 0 -0 -3.5903 -61.193 6.3515 109.83 -0.92475 3.3175 -0 0 -0 7.6697 2.6268 -1.1928 7.6697 2.6268 -1.1927 14.529 19.982 -30.547 -16.402 -46.848 -7.373 -0 0 -0 -0 0 -0 -0 0 -0 -0 0 -0 14.529 19.982 -30.547 5.9485 -43.848 -7.913 -21.629 33.814 1.2961 -0 0 -0 -0 0 -0 -0 0 -0 
0 0.98401 0 -0 0 -0 14.602 19.941 -30.733 -3.7687 -3.2649 0.82739 -3.7687 -3.2649 0.82739 -3.1683 -2.739 0.70935 -0 0 -0 31.059 30.055 73.619 -81.356 53.42 24.237 -0 0 -0 -0 0 -0 -3.1059 -61.466 7.3994 109.94 -1.4078 3.8934 -0 0 -0 7.6931 2.6427 -1.2672 7.6931 2.6427 -1.2672 14.602 19.941 -30.733 -16.224 -46.928 -7.2464 -0 0 -0 -0 0 -0 -0 0 -0 -0 0 -0 14.602 19.941 -30.733 5.853 -43.807 -8.2887 -21.765 33.643 1.8569 -0 0 -0 -0 0 -0 -0 0 -0 
0 0.98401 0 -0 0 -0 14.678 19.904 -30.916 -3.769 -3.2812 0.89919 -3.769 -3.2812 0.89919 -3.1688 -2.7523 0.76973 -0 0 -0 31.079 30.405 73.738 -81.191 53.074 24.103 -0 0 -0 -0 0 -0 -2.6047 -61.735 8.4549 110.05 -1.8919 4.4693 -0 0 -0 7.7183 2.6589 -1.3384 7.7183 2.6589 -1.3384 14.678 19.904 -30.916 -16.048 -47.012 -7.1084 -0 0 -0 -0 0 -0 -0 0 -0 -0 0 -0 14.678 19.904 -30.916 5.7529 -43.772 -8.6703 -21.904 33.478 2.4135 -0 0 -0 -0 0 -0 -0 0 -0 
0 0.98401 0 -0 0 -0 14.758 19.869 -31.095 -3.7718 -3.2981 0.96769 -3.7718 -3.2981 0.96768 -3.1714 -2.7663 0.82734 -0 0 -0 31.114 30.746 73.854 -81.073 52.726 24.012 -0 0 -0 -0 0 -0 -2.0854 -62 9.5201 110.17 -2.3769 5.0444 -0 0 -0 7.7448 2.6752 -1.4061 7.7448 2.6752 -1.4061 14.758 19.869 -31.095 -15.874 -47.102 -6.9596 -0 0 -0 -0 0 -0 -0 0 -0 -0 0 -0 14.758 19.869 -31.095 5.6484 -43.744 -9.0572 -22.043 33.319 2.9651 -0 0 -0 -0 0 -0 -0 0 -0 
0 0.98401 0 -0 0 -0 14.841 19.838 -31.27 -3.7767 -3.3156 1.0325 -3.7767 -3.3156 1.0325 -3.1759 -2.7807 0.88187 -0 0 -0 31.162 31.077 73.966 -81 52.378 23.965 -0 0 -0 -0 0 -0 -1.5466 -62.263 10.597 110.28 -2.8623 5.6182 -0 0 -0 7.7723 2.6916 -1.4697 7.7723 2.6916 -1.4697 14.841 19.838 -31.27 -15.703 -47.196 -6.8004 -0 0 -0 -0 0 -0 -0 0 -0 -0 0 -0 14.841 19.838 -31.27 5.5398 -43.722 -9.4488 -22.184 33.167 3.511 -0 0 -0 -0 0 -0 -0 0 -0 
0 0.98401 0 -0 0 -0 14.928 19.81 -31.441 -3.7836 -3.3336 1.0933 -3.7836 -3.3336 1.0933 -3.1819 -2.7955 0.93305 -0 0 -0 31.224 31.398 74.076 -80.972 52.03 23.961 -0 0 -0 -0 0 -0 -0.987 -62.523 11.687 110.39 -3.3477 6.1904 -0 0 -0 7.8005 2.708 -1.5287 7.8005 2.708 -1.5287 14.928 19.81 -31.441 -15.534 -47.296 -6.6313 -0 0 -0 -0 0 -0 -0 0 -0 -0 0 -0 14.928 19.81 -31.441 5.4272 -43.706 -9.8445 -22.326 33.02 4.0505 -0 0 -0 -0 0 -0 -0 0 -0 
0 0.98401 0 -0 0 -0 15.018 19.785 -31.608 -3.7923 -3.352 1.1498 -3.7923 -3.352 1.1498 -3.1894 -2.8107 0.98059 -0 0 -0 31.298 31.71 74.184 -80.988 51.682 23.999 -0 0 -0 -0 0 -0 -0.40511 -62.783 12.792 110.51 -3.8329 6.7602 -0 0 -0 7.829 2.7244 -1.5825 7.829 2.7244 -1.5825 15.018 19.785 -31.608 -15.369 -47.4 -6.4529 -0 0 -0 -0 0 -0 -0 0 -0 -0 0 -0 15.018 19.785 -31.608 5.3109 -43.695 -10.244 -22.469 32.878 4.583 -0 0 -0 -0 0 -0 -0 0 -0 
0 0.98401 0 -0 0 -0 15.112 19.763 -31.771 -3.8023 -3.3705 1.2016 -3.8023 -3.3705 1.2016 -3.1981 -2.826 1.0242 -0 0 -0 31.384 32.013 74.291 -81.048 51.336 24.078 -0 0 -0 -0 0 -0 0.20059 -63.041 13.914 110.62 -4.3174 7.3272 -0 0 -0 7.8576 2.7408 -1.6308 7.8576 2.7408 -1.6308 15.112 19.763 -31.771 -15.207 -47.51 -6.2658 -0 0 -0 -0 0 -0 -0 0 -0 -0 0 -0 15.112 19.763 -31.771 5.191 -43.69 -10.646 -22.612 32.742 5.1078 -0 0 -0 -0 0 -0 -0 0 -0 
0 0.98401 0 -0 0 -0 15.209 19.744 -31.929 -3.8136 -3.3892 1.2484 -3.8136 -3.3892 1.2484 -3.2078 -2.8415 1.0637 -0 0 -0 31.479 32.306 74.397 -81.151 50.991 24.198 -0 0 -0 -0 0 -0 0.83156 -63.299 15.055 110.74 -4.8007 7.8908 -0 0 -0 7.886 2.757 -1.6732 7.886 2.757 -1.6732 15.209 19.744 -31.929 -15.049 -47.625 -6.0707 -0 0 -0 -0 0 -0 -0 0 -0 -0 0 -0 15.209 19.744 -31.929 5.0679 -43.69 -11.05 -22.754 32.611 5.6242 -0 0 -0 -0 0 -0 -0 0 -0 
0 0.98401 0 -0 0 -0 15.309 19.728 -32.082 -3.8259 -3.408 1.29 -3.8259 -3.408 1.29 -3.2183 -2.8571 1.0988 -0 0 -0 31.584 32.59 74.503 -81.297 50.649 24.358 -0 0 -0 -0 0 -0 1.4893 -63.556 16.217 110.85 -5.2824 8.4506 -0 0 -0 7.9138 2.7731 -1.7093 7.9138 2.7731 -1.7093 15.309 19.728 -32.082 -14.895 -47.746 -5.8682 -0 0 -0 -0 0 -0 -0 0 -0 -0 0 -0 15.309 19.728 -32.082 4.9416 -43.695 -11.455 -22.897 32.485 6.1316 -0 0 -0 -0 0 -0 -0 0 -0 
0 0.98401 0 -0 0 -0 15.413 19.715 -32.231 -3.8389 -3.4268 1.3262 -3.8389 -3.4268 1.3262 -3.2294 -2.8726 1.1293 -0 0 -0 31.698 32.866 74.609 -81.483 50.309 24.557 -0 0 -0 -0 0 -0 2.1753 -63.813 17.402 110.96 -5.7622 9.0058 -0 0 -0 7.9407 2.7891 -1.7387 7.9407 2.7891 -1.7387 15.413 19.715 -32.231 -14.746 -47.872 -5.6592 -0 0 -0 -0 0 -0 -0 0 -0 -0 0 -0 15.413 19.715 -32.231 4.8125 -43.704 -11.862 -23.038 32.363 6.6293 -0 0 -0 -0 0 -0 -0 0 -0 
0 0.98401 0 -0 0 -0 15.52 19.706 -32.375 -3.8525 -3.4454 1.3567 -3.8525 -3.4454 1.3567 -3.2409 -2.8882 1.1551 -0 0 -0 31.819 33.133 74.715 -81.711 49.972 24.795 -0 0 -0 -0 0 -0 2.8908 -64.07 18.61 111.07 -6.2394 9.556 -0 0 -0 7.9666 2.8049 -1.7613 7.9666 2.8049 -1.7613 15.52 19.706 -32.375 -14.602 -48.004 -5.4442 -0 0 -0 -0 0 -0 -0 0 -0 -0 0 -0 15.52 19.706 -32.375 4.6808 -43.717 -12.268 -23.179 32.246 7.1168 -0 0 -0 -0 0 -0 -0 0 -0 
0 0.98401 0 -0 0 -0 15.63 19.699 -32.513 -3.8663 -3.464 1.3814 -3.8663 -3.464 1.3814 -3.2526 -2.9037 1.1759 -0 0 -0 31.947 33.392 74.823 -81.978 49.639 25.07 -0 0 -0 -0 0 -0 3.6372 -64.327 19.844 111.19 -6.7137 10.101 -0 0 -0 7.9911 2.8207 -1.7768 7.9911 2.8207 -1.7768 15.63 19.699 -32.513 -14.464 -48.141 -5.2243 -0 0 -0 -0 0 -0 -0 0 -0 -0 0 -0 15.63 19.699 -32.513 4.5466 -43.735 -12.674 -23.318 32.134 7.5934 -0 0 -0 -0 0 -0 -0 0 -0 
0 0.98401 0 -0 0 -0 15.743 19.696 -32.647 -3.8802 -3.4825 1.4002 -3.8802 -3.4825 1.4002 -3.2644 -2.9191 1.1918 -0 0 -0 32.081 33.643 74.932 -82.285 49.309 25.382 -0 0 -0 -0 0 -0 4.416 -64.583 21.105 111.3 -7.1845 10.639 -0 0 -0 8.014 2.8364 -1.7849 8.014 2.8364 -1.7849 15.743 19.696 -32.647 -14.332 -48.283 -5.0001 -0 0 -0 -0 0 -0 -0 0 -0 -0 0 -0 15.743 19.696 -32.647 4.4102 -43.756 -13.079 -23.455 32.026 8.0587 -0 0 -0 -0 0 -0 -0 0 -0 
0 0.98401 0 -0 0 -0 15.859 19.695 -32.775 -3.8941 -3.5009 1.4129 -3.8941 -3.5009 1.4129 -3.2762 -2.9344 1.2026 -0 0 -0 32.22 33.886 75.043 -82.63 48.984 25.731 -0 0 -0 -0 0 -0 5.228 -64.84 22.393 111.41 -7.6513 11.171 -0 0 -0 8.0351 2.852 -1.7857 8.0351 2.852 -1.7857 15.859 19.695 -32.775 -14.206 -48.432 -4.7725 -0 0 -0 -0 0 -0 -0 0 -0 -0 0 -0 15.859 19.695 -32.775 4.2719 -43.781 -13.482 -23.589 31.922 8.5121 -0 0 -0 -0 0 -0 -0 0 -0 
